<svg id="Glowistic_Brand_Mark" xmlns="http://www.w3.org/2000/svg" viewBox="0 0 515.23 515.23">
  <defs><style>.mark-fill{fill:#500f17;}</style></defs>
  <path class="mark-fill" d="M404.68,256c121.52,0,104.62,145.6,3,145.41A150.33,150.33,0,0,0,290.57,260.9c0-1.09-.08-2.19-.08-3.29s.05-2.08.06-3.13c66.27-14.31,114.34-71.09,117.14-140.69,50,.12,89.9,40.13,72.69,88.53,22.43.41,34.86-13.21,34.86-31.24,0-23.24-24.84-41.66-44.07-50.88-19.52-8.76-41.8-12.76-63.33-12.82v0c0-70.93-43.59-107-84.67-107.33-.22,0-.43,0-.66,0H250V110.57h6c0-19.62,3.8-35.63,10.15-48.25a66.74,66.74,0,0,1,25.63-28c43.08-25.52,109.77,4.44,109.63,73.21A150.31,150.31,0,0,0,260.92,224.68c-1.1,0-2.2.06-3.31.06s-2.08-.05-3.13-.06c-14.3-66.27-71.07-114.34-140.67-117.15.12-50,40.13-89.88,88.53-72.69C202.73,12.42,189.11,0,171.08,0c-23.22,0-41.66,24.83-50.88,44.06-8.75,19.52-12.76,41.81-12.8,63.32h0C36.13,107.38.09,151.34,0,192.56v72.67H110.57v-6c-27.19,0-47.43-7.31-61.36-18.62l-8.65-8.43c-35.77-42.11-6.63-118.51,67-118.38A150.3,150.3,0,0,0,224.68,254.31c0,1.11.07,2.19.07,3.3s-.06,2.09-.07,3.14c-66.25,14.31-114.32,71.09-117.13,140.68-50-.12-89.9-40.12-72.69-88.53C12.42,312.5,0,326.12,0,344.15,0,367.39,24.83,385.81,44.06,395c19.52,8.77,41.81,12.76,63.32,12.81v0c0,71.31,44.08,107.36,85.34,107.36h72.51V404.66h-6c0,28.46-8,49.33-20.22,63.29l-4.9,5c-41.66,38.36-120.44,9.46-120.29-65.29A150.32,150.32,0,0,0,254.33,290.55c1.09,0,2.19-.06,3.28-.06s2.11.05,3.14.06c14.31,66.27,71.09,114.34,140.68,117.14-.12,50-40.13,89.88-88.53,72.69-.4,22.43,13.23,34.85,31.25,34.85,23.24,0,41.67-24.83,50.87-44.06,8.77-19.52,12.78-41.81,12.82-63.33h0c71.31,0,107.37-44.06,107.37-85.33,0-1.86-.07-3.74-.24-5.6l.24.21V250H404.68Zm-3.46-142c-3.39,53.94-49.13,94.58-106.84,106.86C307.11,161.68,349.82,117.34,401.22,114ZM62,258.91l1.74.31H62ZM114,114c54,3.4,94.6,49.16,106.88,106.85C161.68,208.12,117.35,165.42,114,114ZM259.22,451.53v1.76h-.32C259,452.7,259.13,452.13,259.22,451.53ZM114,401.22c3.39-53.94,49.14-94.58,106.84-106.86C208.13,353.54,165.42,397.88,114,401.22ZM294.36,294.36c59.18,12.73,103.53,55.45,106.86,106.86C347.28,397.83,306.64,352.07,294.36,294.36ZM453.29,256v.31l-1.75-.31Z"/>
</svg>
